<?xml-stylesheet href="../css/style.production.css" type="text/css"?>
<!-- Creator: CorelDRAW X6 -->
<svg xmlns="http://www.w3.org/2000/svg" xml:space="preserve" width="13.8889in" height="6.94444in" version="1.1" style="shape-rendering:geometricPrecision; text-rendering:geometricPrecision; image-rendering:optimizeQuality; fill-rule:evenodd; clip-rule:evenodd"
viewBox="0 0 13889 6944"
 xmlns:xlink="http://www.w3.org/1999/xlink">
 <defs>
  <style type="text/css">
   <![CDATA[
    .str0 {stroke:#494950;stroke-width:41.6654}
    .fil1 {fill:none;fill-rule:nonzero}
    .fil9 {fill:#656565;fill-rule:nonzero}
    .fil0 {fill:#6DBED3;fill-rule:nonzero}
    .fil5 {fill:#B2D8D9;fill-rule:nonzero}
    .fil4 {fill:#B4DBDC;fill-rule:nonzero}
    .fil2 {fill:#E64946;fill-rule:nonzero}
    .fil3 {fill:#EE6666;fill-rule:nonzero}
    .fil7 {fill:#F1C25B;fill-rule:nonzero}
    .fil6 {fill:#F3DC8D;fill-rule:nonzero}
    .fil8 {fill:#FEFEFE;fill-rule:nonzero}
   ]]>
  </style>
 </defs>
 <g id="Layer_x0020_1">
  <metadata id="CorelCorpID_0Corel-Layer"/>
  <polygon class="fil0 water" points="6851,5400 11778,5400 11778,4927 6851,4927 "/>
  <polygon class="fil1 str0" points="6851,5400 11778,5400 11778,4927 6851,4927 "/>
  <polygon class="fil0" points="11185,5401 12100,5401 12100,612 11185,612 "/>
  <polygon class="fil1 str0" points="11185,5401 12100,5401 12100,612 11185,612 "/>
  <polygon class="fil2" points="6260,4747 12353,4747 12353,4646 6260,4646 "/>
  <polygon class="fil1 str0" points="6260,4747 12353,4747 12353,4646 6260,4646 "/>
  <polyline class="fil1 str0" points="6395,4646 7851,3256 6511,4646 "/>
  <polyline class="fil1 str0" points="6618,4633 7851,3256 6707,4646 "/>
  <polyline class="fil1 str0" points="9306,4646 7851,3256 9191,4646 "/>
  <polyline class="fil1 str0" points="9084,4633 7851,3256 8994,4646 "/>
  <polyline class="fil1 str0" points="12218,4646 10762,3256 12102,4646 "/>
  <polyline class="fil1 str0" points="11995,4633 10762,3256 11905,4646 "/>
  <path class="fil3" d="M7851 5129l-133 -380 133 -1295 133 1295 -133 380zm64 -1804l0 -87c0,-35 -29,-64 -64,-64l0 0c-35,0 -64,29 -64,64l0 87 -147 1424 -1 9 150 427 125 0 150 -427 -148 -1433z"/>
  <path class="fil1 str0" d="M7851 5129l-133 -380 133 -1295 133 1295 -133 380zm64 -1804l0 -87c0,-35 -29,-64 -64,-64l0 0c-35,0 -64,29 -64,64l0 87 -147 1424 -1 9 150 427 125 0 150 -427 -148 -1433z"/>
  <polyline class="fil1 str0" points="9306,4646 10762,3256 9422,4646 "/>
  <polyline class="fil1 str0" points="9529,4633 10762,3256 9619,4646 "/>
  <path class="fil3" d="M10629 4749l133 -1295 133 1295 -133 380 -133 -380zm-78 9l150 427 125 0 150 -427 -1 -9 -147 -1424 0 -87c0,-35 -29,-64 -64,-64l0 0c-35,0 -64,29 -64,64l0 87 -148 1433z"/>
  <path class="fil1 str0" d="M10629 4749l133 -1295 133 1295 -133 380 -133 -380zm-78 9l150 427 125 0 150 -427 -1 -9 -147 -1424 0 -87c0,-35 -29,-64 -64,-64l0 0c-35,0 -64,29 -64,64l0 87 -148 1433z"/>
  <polygon class="fil2" points="10629,5242 10896,5242 10896,5128 10629,5128 "/>
  <polygon class="fil1 str0" points="10629,5242 10896,5242 10896,5128 10629,5128 "/>
  <polygon class="fil2" points="10450,5400 11075,5400 11075,5242 10450,5242 "/>
  <polygon class="fil1 str0" points="10450,5400 11075,5400 11075,5242 10450,5242 "/>
  <polygon class="fil4" points="3188,5401 4695,5401 4695,1546 3188,1546 "/>
  <polygon class="fil1 str0" points="3188,5401 4695,5401 4695,1546 3188,1546 "/>
  <polygon class="fil0" points="3942,5401 4695,5401 4695,1546 3942,1546 "/>
  <polyline class="fil1 str0" points="3942,1546 4695,1546 4695,5401 3942,5401 "/>
  <polygon class="fil0" points="3322,1897 4561,1897 4561,1723 3322,1723 "/>
  <polygon class="fil1 str0" points="3322,1897 4561,1897 4561,1723 3322,1723 "/>
  <polygon class="fil0" points="3322,2184 4561,2184 4561,2009 3322,2009 "/>
  <polygon class="fil1 str0" points="3322,2184 4561,2184 4561,2009 3322,2009 "/>
  <polygon class="fil0" points="3322,2470 4561,2470 4561,2296 3322,2296 "/>
  <polygon class="fil1 str0" points="3322,2470 4561,2470 4561,2296 3322,2296 "/>
  <polygon class="fil0" points="3322,2756 4561,2756 4561,2582 3322,2582 "/>
  <polygon class="fil1 str0" points="3322,2756 4561,2756 4561,2582 3322,2582 "/>
  <polygon class="fil0" points="3322,3042 4561,3042 4561,2868 3322,2868 "/>
  <polygon class="fil1 str0" points="3322,3042 4561,3042 4561,2868 3322,2868 "/>
  <polygon class="fil0" points="3322,3328 4561,3328 4561,3154 3322,3154 "/>
  <polygon class="fil1 str0" points="3322,3328 4561,3328 4561,3154 3322,3154 "/>
  <line class="fil1 str0" x1="3322" y1="3601" x2="3322" y2= "5029" />
  <line class="fil1 str0" x1="3528" y1="3601" x2="3528" y2= "5029" />
  <line class="fil1 str0" x1="3735" y1="3601" x2="3735" y2= "5029" />
  <line class="fil1 str0" x1="4148" y1="3601" x2="4148" y2= "5029" />
  <line class="fil1 str0" x1="4355" y1="3601" x2="4355" y2= "5029" />
  <line class="fil1 str0" x1="4561" y1="3601" x2="4561" y2= "5029" />
  <polygon class="fil4" points="3512,1540 3512,1318 4355,1171 4355,1540 "/>
  <polygon class="fil1 str0" points="3512,1540 3512,1318 4355,1171 4355,1540 "/>
  <line class="fil1 str0" x1="0" y1="5400" x2="13889" y2= "5400" />
  <line class="fil1 str0" x1="0" y1="5521" x2="13889" y2= "5521" />
  <path class="fil5 cloud-right" d="M9829 2450c20,0 36,-16 36,-36l0 0c0,-55 -40,-102 -97,-123 6,-14 9,-29 9,-45 0,-78 -77,-142 -171,-142 -80,0 -147,46 -166,107 -2,0 -4,0 -5,0 -113,0 -205,71 -205,159 0,0 0,1 0,1 0,45 40,79 84,79l515 0z"/>
  <path class="fil1 str0 cloud-right" d="M9829 2450c20,0 36,-16 36,-36l0 0c0,-55 -40,-102 -97,-123 6,-14 9,-29 9,-45 0,-78 -77,-142 -171,-142 -80,0 -147,46 -166,107 -2,0 -4,0 -5,0 -113,0 -205,71 -205,159 0,0 0,1 0,1 0,45 40,79 84,79l515 0z"/>
  <path class="fil5 cloud-mid" d="M8808 1283c20,0 36,-16 36,-36l0 0c0,-55 -40,-102 -97,-123 6,-14 9,-29 9,-45 0,-78 -77,-142 -171,-142 -80,0 -147,46 -166,107 -2,0 -4,0 -5,0 -113,0 -205,71 -205,159 0,0 0,1 0,1 0,45 40,79 84,79l515 0z"/>
  <path class="fil1 str0 cloud-mid" d="M8808 1283c20,0 36,-16 36,-36l0 0c0,-55 -40,-102 -97,-123 6,-14 9,-29 9,-45 0,-78 -77,-142 -171,-142 -80,0 -147,46 -166,107 -2,0 -4,0 -5,0 -113,0 -205,71 -205,159 0,0 0,1 0,1 0,45 40,79 84,79l515 0z"/>
  <path class="fil5 cloud-left" d="M3081 1111c20,0 36,-16 36,-36l0 0c0,-55 -40,-102 -97,-123 6,-14 9,-29 9,-45 0,-78 -77,-142 -171,-142 -80,0 -147,46 -166,107 -2,0 -4,0 -5,0 -113,0 -205,71 -205,159 0,0 0,1 0,1 0,45 40,79 84,79l515 0z"/>
  <path class="fil1 str0 cloud-left" d="M3081 1111c20,0 36,-16 36,-36l0 0c0,-55 -40,-102 -97,-123 6,-14 9,-29 9,-45 0,-78 -77,-142 -171,-142 -80,0 -147,46 -166,107 -2,0 -4,0 -5,0 -113,0 -205,71 -205,159 0,0 0,1 0,1 0,45 40,79 84,79l515 0z"/>
  <polygon class="fil6" points="5884,4879 6723,4879 6723,1988 5884,1988 "/>
  <polygon class="fil1 str0" points="5884,4879 6723,4879 6723,1988 5884,1988 "/>
  <polygon class="fil7" points="6302,4879 6723,4879 6723,1988 6302,1988 "/>
  <polyline class="fil1 str0" points="6302,1988 6723,1988 6723,4879 6302,4879 "/>
  <line class="fil1 str0" x1="6063" y1="2256" x2="6545" y2= "2256" />
  <line class="fil1 str0" x1="6063" y1="2482" x2="6545" y2= "2482" />
  <line class="fil1 str0" x1="6063" y1="2708" x2="6545" y2= "2708" />
  <line class="fil1 str0" x1="6063" y1="2933" x2="6545" y2= "2933" />
  <line class="fil1 str0" x1="6063" y1="3159" x2="6545" y2= "3159" />
  <line class="fil1 str0" x1="6063" y1="3384" x2="6545" y2= "3384" />
  <line class="fil1 str0" x1="6063" y1="3610" x2="6545" y2= "3610" />
  <line class="fil1 str0" x1="6063" y1="3836" x2="6545" y2= "3836" />
  <line class="fil1 str0" x1="6063" y1="4061" x2="6545" y2= "4061" />
  <line class="fil1 str0" x1="6063" y1="4287" x2="6545" y2= "4287" />
  <line class="fil1 str0" x1="6063" y1="4512" x2="6545" y2= "4512" />
  <line class="fil1 str0" x1="6063" y1="4738" x2="6545" y2= "4738" />
  <polygon class="fil8" points="5629,5399 5884,5399 5884,1696 5629,1696 "/>
  <polygon class="fil1 str0" points="5629,5399 5884,5399 5884,1696 5629,1696 "/>
  <line class="fil1 str0" x1="5629" y1="1988" x2="5884" y2= "1814" />
  <line class="fil1 str0" x1="5629" y1="2287" x2="5884" y2= "2113" />
  <line class="fil1 str0" x1="5629" y1="2587" x2="5884" y2= "2412" />
  <line class="fil1 str0" x1="5629" y1="2886" x2="5884" y2= "2712" />
  <line class="fil1 str0" x1="5629" y1="3185" x2="5884" y2= "3011" />
  <line class="fil1 str0" x1="5629" y1="3485" x2="5884" y2= "3311" />
  <line class="fil1 str0" x1="5629" y1="3784" x2="5884" y2= "3610" />
  <line class="fil1 str0" x1="5629" y1="4083" x2="5884" y2= "3909" />
  <line class="fil1 str0" x1="5629" y1="4383" x2="5884" y2= "4209" />
  <line class="fil1 str0" x1="5629" y1="4682" x2="5884" y2= "4508" />
  <line class="fil1 str0" x1="5629" y1="4982" x2="5884" y2= "4807" />
  <line class="fil1 str0" x1="5629" y1="5281" x2="5884" y2= "5107" />
  <polygon class="fil8" points="6723,5399 6979,5399 6979,1696 6723,1696 "/>
  <polygon class="fil1 str0" points="6723,5399 6979,5399 6979,1696 6723,1696 "/>
  <line class="fil1 str0" x1="6723" y1="1988" x2="6979" y2= "1814" />
  <line class="fil1 str0" x1="6723" y1="2287" x2="6979" y2= "2113" />
  <line class="fil1 str0" x1="6723" y1="2587" x2="6979" y2= "2412" />
  <line class="fil1 str0" x1="6723" y1="2886" x2="6979" y2= "2712" />
  <line class="fil1 str0" x1="6723" y1="3185" x2="6979" y2= "3011" />
  <line class="fil1 str0" x1="6723" y1="3485" x2="6979" y2= "3311" />
  <line class="fil1 str0" x1="6723" y1="3784" x2="6979" y2= "3610" />
  <line class="fil1 str0" x1="6723" y1="4083" x2="6979" y2= "3909" />
  <line class="fil1 str0" x1="6723" y1="4383" x2="6979" y2= "4209" />
  <line class="fil1 str0" x1="6723" y1="4682" x2="6979" y2= "4508" />
  <line class="fil1 str0" x1="6723" y1="4982" x2="6979" y2= "4807" />
  <line class="fil1 str0" x1="6723" y1="5281" x2="6979" y2= "5107" />
  <polygon class="fil2" points="403,4636 3839,4636 3839,4006 403,4006 "/>
  <polygon class="fil1 str0" points="403,4636 3839,4636 3839,4006 403,4006 "/>
  <polygon class="fil3" points="403,4006 3839,4006 3839,3384 403,3384 "/>
  <polygon class="fil1 str0" points="403,4006 3839,4006 3839,3384 403,3384 "/>
  <polygon class="fil2" points="403,4006 2103,4006 2103,3384 403,3384 "/>
  <polyline class="fil1 str0" points="2103,3384 403,3384 403,4006 2103,4006 "/>
  <polygon class="fil3" points="398,3384 3845,3384 3652,2920 590,2920 "/>
  <polygon class="fil1 str0" points="398,3384 3845,3384 3652,2920 590,2920 "/>
  <polygon class="fil2" points="2103,2920 590,2920 398,3384 2103,3384 "/>
  <polyline class="fil1 str0" points="2103,2920 590,2920 398,3384 2103,3384 "/>
  <polygon class="fil5" points="561,3763 681,3763 681,3627 561,3627 "/>
  <polygon class="fil1 str0" points="561,3763 681,3763 681,3627 561,3627 "/>
  <polygon class="fil5" points="814,3763 935,3763 935,3627 814,3627 "/>
  <polygon class="fil1 str0" points="814,3763 935,3763 935,3627 814,3627 "/>
  <polygon class="fil5" points="1067,3763 1188,3763 1188,3627 1067,3627 "/>
  <polygon class="fil1 str0" points="1067,3763 1188,3763 1188,3627 1067,3627 "/>
  <polygon class="fil5" points="3054,3763 3175,3763 3175,3627 3054,3627 "/>
  <polygon class="fil1 str0" points="3054,3763 3175,3763 3175,3627 3054,3627 "/>
  <polygon class="fil5" points="3308,3763 3428,3763 3428,3627 3308,3627 "/>
  <polygon class="fil1 str0" points="3308,3763 3428,3763 3428,3627 3308,3627 "/>
  <polygon class="fil5" points="3561,3763 3681,3763 3681,3627 3561,3627 "/>
  <polygon class="fil1 str0" points="3561,3763 3681,3763 3681,3627 3561,3627 "/>
  <polygon class="fil3" points="403,4636 555,4636 555,4006 403,4006 "/>
  <polygon class="fil1 str0" points="403,4636 555,4636 555,4006 403,4006 "/>
  <polygon class="fil3" points="793,4636 945,4636 945,4006 793,4006 "/>
  <polygon class="fil1 str0" points="793,4636 945,4636 945,4006 793,4006 "/>
  <polygon class="fil3" points="1183,4636 1336,4636 1336,4006 1183,4006 "/>
  <polygon class="fil1 str0" points="1183,4636 1336,4636 1336,4006 1183,4006 "/>
  <polygon class="fil3" points="2907,4636 3059,4636 3059,4006 2907,4006 "/>
  <polygon class="fil1 str0" points="2907,4636 3059,4636 3059,4006 2907,4006 "/>
  <polygon class="fil3" points="3297,4636 3449,4636 3449,4006 3297,4006 "/>
  <polygon class="fil1 str0" points="3297,4636 3449,4636 3449,4006 3297,4006 "/>
  <polygon class="fil3" points="3687,4636 3839,4636 3839,4006 3687,4006 "/>
  <polygon class="fil1 str0" points="3687,4636 3839,4636 3839,4006 3687,4006 "/>
  <polygon class="fil2" points="403,5399 3839,5399 3839,4770 403,4770 "/>
  <polygon class="fil1 str0" points="403,5399 3839,5399 3839,4770 403,4770 "/>
  <polygon class="fil3" points="403,5399 555,5399 555,4770 403,4770 "/>
  <polygon class="fil1 str0" points="403,5399 555,5399 555,4770 403,4770 "/>
  <polygon class="fil3" points="793,5399 945,5399 945,4770 793,4770 "/>
  <polygon class="fil1 str0" points="793,5399 945,5399 945,4770 793,4770 "/>
  <polygon class="fil3" points="1183,5399 1336,5399 1336,4770 1183,4770 "/>
  <polygon class="fil1 str0" points="1183,5399 1336,5399 1336,4770 1183,4770 "/>
  <polygon class="fil3" points="2907,5399 3059,5399 3059,4770 2907,4770 "/>
  <polygon class="fil1 str0" points="2907,5399 3059,5399 3059,4770 2907,4770 "/>
  <polygon class="fil3" points="3297,5399 3449,5399 3449,4770 3297,4770 "/>
  <polygon class="fil1 str0" points="3297,5399 3449,5399 3449,4770 3297,4770 "/>
  <polygon class="fil3" points="3687,5399 3839,5399 3839,4770 3687,4770 "/>
  <polygon class="fil1 str0" points="3687,5399 3839,5399 3839,4770 3687,4770 "/>
  <path class="fil3" d="M2121 1764c-244,0 -442,220 -442,491l885 0c0,-271 -198,-491 -442,-491z"/>
  <path class="fil1 str0" d="M2121 1764c-244,0 -442,220 -442,491l885 0c0,-271 -198,-491 -442,-491z"/>
  <path class="fil2" d="M2121 2255l442 0c0,-271 -198,-491 -442,-491l0 491z"/>
  <path class="fil1 str0" d="M2121 2255l442 0c0,-271 -198,-491 -442,-491"/>
  <polygon class="fil8" points="1565,3995 2677,3995 2677,2771 1565,2771 "/>
  <polygon class="fil1 str0" points="1565,3995 2677,3995 2677,2771 1565,2771 "/>
  <path class="fil4" d="M1908 4200l0 436 -231 0 0 -436c0,-64 52,-115 115,-115l0 0c64,0 115,52 115,115z"/>
  <path class="fil1 str0" d="M1908 4200l0 436 -231 0 0 -436c0,-64 52,-115 115,-115l0 0c64,0 115,52 115,115z"/>
  <path class="fil0" d="M1793 4085l0 0c64,0 115,52 115,115l0 436 -115 0 0 -551z"/>
  <path class="fil1 str0" d="M1793 4085l0 0c64,0 115,52 115,115l0 436 -115 0"/>
  <path class="fil4" d="M2237 4200l0 436 -231 0 0 -436c0,-64 52,-115 115,-115l0 0c64,0 115,52 115,115z"/>
  <path class="fil1 str0" d="M2237 4200l0 436 -231 0 0 -436c0,-64 52,-115 115,-115l0 0c64,0 115,52 115,115z"/>
  <path class="fil0" d="M2121 4085l0 0c64,0 115,52 115,115l0 436 -115 0 0 -551z"/>
  <path class="fil1 str0" d="M2121 4085l0 0c64,0 115,52 115,115l0 436 -115 0"/>
  <path class="fil4" d="M2565 4200l0 436 -231 0 0 -436c0,-64 52,-115 115,-115l0 0c64,0 115,52 115,115z"/>
  <path class="fil1 str0" d="M2565 4200l0 436 -231 0 0 -436c0,-64 52,-115 115,-115l0 0c64,0 115,52 115,115z"/>
  <path class="fil0" d="M2450 4085l0 0c64,0 115,52 115,115l0 436 -115 0 0 -551z"/>
  <path class="fil1 str0" d="M2450 4085l0 0c64,0 115,52 115,115l0 436 -115 0"/>
  <path class="fil4" d="M1908 4964l0 436 -231 0 0 -436c0,-64 52,-115 115,-115l0 0c64,0 115,52 115,115z"/>
  <path class="fil1 str0" d="M1908 4964l0 436 -231 0 0 -436c0,-64 52,-115 115,-115l0 0c64,0 115,52 115,115z"/>
  <path class="fil0" d="M1793 4848l0 0c64,0 115,52 115,115l0 436 -115 0 0 -551z"/>
  <path class="fil1 str0" d="M1793 4848l0 0c64,0 115,52 115,115l0 436 -115 0"/>
  <path class="fil4" d="M2237 4964l0 436 -231 0 0 -436c0,-64 52,-115 115,-115l0 0c64,0 115,52 115,115z"/>
  <path class="fil1 str0" d="M2237 4964l0 436 -231 0 0 -436c0,-64 52,-115 115,-115l0 0c64,0 115,52 115,115z"/>
  <path class="fil0" d="M2121 4848l0 0c64,0 115,52 115,115l0 436 -115 0 0 -551z"/>
  <path class="fil1 str0" d="M2121 4848l0 0c64,0 115,52 115,115l0 436 -115 0"/>
  <path class="fil4" d="M2565 4964l0 436 -231 0 0 -436c0,-64 52,-115 115,-115l0 0c64,0 115,52 115,115z"/>
  <path class="fil1 str0" d="M2565 4964l0 436 -231 0 0 -436c0,-64 52,-115 115,-115l0 0c64,0 115,52 115,115z"/>
  <path class="fil0" d="M2450 4848l0 0c64,0 115,52 115,115l0 436 -115 0 0 -551z"/>
  <path class="fil1 str0" d="M2450 4848l0 0c64,0 115,52 115,115l0 436 -115 0"/>
  <path class="fil4" d="M1908 3204l0 436 -231 0 0 -436c0,-64 52,-115 115,-115l0 0c64,0 115,52 115,115z"/>
  <path class="fil1 str0" d="M1908 3204l0 436 -231 0 0 -436c0,-64 52,-115 115,-115l0 0c64,0 115,52 115,115z"/>
  <path class="fil0" d="M1793 3088l0 0c64,0 115,52 115,115l0 436 -115 0 0 -551z"/>
  <path class="fil1 str0" d="M1793 3088l0 0c64,0 115,52 115,115l0 436 -115 0"/>
  <path class="fil4" d="M2237 3204l0 436 -231 0 0 -436c0,-64 52,-115 115,-115l0 0c64,0 115,52 115,115z"/>
  <path class="fil1 str0" d="M2237 3204l0 436 -231 0 0 -436c0,-64 52,-115 115,-115l0 0c64,0 115,52 115,115z"/>
  <path class="fil0" d="M2121 3088l0 0c64,0 115,52 115,115l0 436 -115 0 0 -551z"/>
  <path class="fil1 str0" d="M2121 3088l0 0c64,0 115,52 115,115l0 436 -115 0"/>
  <path class="fil4" d="M2565 3204l0 436 -231 0 0 -436c0,-64 52,-115 115,-115l0 0c64,0 115,52 115,115z"/>
  <path class="fil1 str0" d="M2565 3204l0 436 -231 0 0 -436c0,-64 52,-115 115,-115l0 0c64,0 115,52 115,115z"/>
  <path class="fil0" d="M2450 3088l0 0c64,0 115,52 115,115l0 436 -115 0 0 -551z"/>
  <path class="fil1 str0" d="M2450 3088l0 0c64,0 115,52 115,115l0 436 -115 0"/>
  <line class="fil1 str0" x1="590" y1="2920" x2="590" y2= "3283" />
  <line class="fil1 str0" x1="788" y1="2920" x2="788" y2= "3283" />
  <line class="fil1 str0" x1="985" y1="2920" x2="985" y2= "3283" />
  <line class="fil1 str0" x1="1182" y1="2920" x2="1182" y2= "3283" />
  <line class="fil1 str0" x1="1380" y1="2920" x2="1380" y2= "3283" />
  <line class="fil1 str0" x1="2862" y1="2920" x2="2862" y2= "3283" />
  <line class="fil1 str0" x1="3060" y1="2920" x2="3060" y2= "3283" />
  <line class="fil1 str0" x1="3257" y1="2920" x2="3257" y2= "3283" />
  <line class="fil1 str0" x1="3454" y1="2920" x2="3454" y2= "3283" />
  <line class="fil1 str0" x1="3652" y1="2920" x2="3652" y2= "3283" />
  <polygon class="fil8" points="1686,2771 2556,2771 2556,2255 1686,2255 "/>
  <polygon class="fil1 str0" points="1686,2771 2556,2771 2556,2255 1686,2255 "/>
  <polygon class="fil2" points="1908,2771 2334,2771 2334,2255 1908,2255 "/>
  <polygon class="fil1 str0" points="1908,2771 2334,2771 2334,2255 1908,2255 "/>
  <polygon class="fil8" points="403,4770 3839,4770 3839,4636 403,4636 "/>
  <polygon class="fil1 str0" points="403,4770 3839,4770 3839,4636 403,4636 "/>
  <polygon class="fil8" points="555,4321 793,4321 793,4006 555,4006 "/>
  <polygon class="fil1 str0" points="555,4321 793,4321 793,4006 555,4006 "/>
  <polygon class="fil8" points="945,4321 1183,4321 1183,4006 945,4006 "/>
  <polygon class="fil1 str0" points="945,4321 1183,4321 1183,4006 945,4006 "/>
  <polygon class="fil8" points="3059,4321 3297,4321 3297,4006 3059,4006 "/>
  <polygon class="fil1 str0" points="3059,4321 3297,4321 3297,4006 3059,4006 "/>
  <polygon class="fil8" points="3449,4321 3687,4321 3687,4006 3449,4006 "/>
  <polygon class="fil1 str0" points="3449,4321 3687,4321 3687,4006 3449,4006 "/>
  <polygon class="fil8" points="555,5085 793,5085 793,4770 555,4770 "/>
  <polygon class="fil1 str0" points="555,5085 793,5085 793,4770 555,4770 "/>
  <polygon class="fil8" points="945,5085 1183,5085 1183,4770 945,4770 "/>
  <polygon class="fil1 str0" points="945,5085 1183,5085 1183,4770 945,4770 "/>
  <polygon class="fil8" points="3059,5085 3297,5085 3297,4770 3059,4770 "/>
  <polygon class="fil1 str0" points="3059,5085 3297,5085 3297,4770 3059,4770 "/>
  <polygon class="fil8" points="3449,5085 3687,5085 3687,4770 3449,4770 "/>
  <polygon class="fil1 str0" points="3449,5085 3687,5085 3687,4770 3449,4770 "/>
  <line class="fil1 str0" x1="1802" y1="2474" x2="1802" y2= "2615" />
  <line class="fil1 str0" x1="2121" y1="2474" x2="2121" y2= "2615" />
  <line class="fil1 str0" x1="2440" y1="2474" x2="2440" y2= "2615" />
  <polygon class="fil3" points="1908,1824 2334,1824 2334,1659 1908,1659 "/>
  <polygon class="fil1 str0" points="1908,1824 2334,1824 2334,1659 1908,1659 "/>
  <polygon class="fil7" points="4581,2950 4933,2950 4933,2338 4581,2338 "/>
  <polygon class="fil1 str0" points="4581,2950 4933,2950 4933,2338 4581,2338 "/>
  <polygon class="fil7" points="4458,3537 5057,3537 5057,2950 4458,2950 "/>
  <polygon class="fil1 str0" points="4458,3537 5057,3537 5057,2950 4458,2950 "/>
  <path class="fil3" d="M4757 1441c-66,0 -119,127 -119,285l238 0c0,-157 -53,-285 -119,-285z"/>
  <path class="fil1 str0" d="M4757 1441c-66,0 -119,127 -119,285l238 0c0,-157 -53,-285 -119,-285z"/>
  <path class="fil2" d="M4757 1726l119 0c0,-157 -53,-285 -119,-285l0 285z"/>
  <path class="fil1 str0" d="M4757 1726l119 0c0,-157 -53,-285 -119,-285"/>
  <path class="fil4" d="M4849 2533l0 345 -183 0 0 -345c0,-50 41,-91 91,-91l0 0c50,0 91,41 91,91z"/>
  <path class="fil1 str0" d="M4849 2533l0 345 -183 0 0 -345c0,-50 41,-91 91,-91l0 0c50,0 91,41 91,91z"/>
  <path class="fil0" d="M4757 2442l0 0c50,0 91,41 91,91l0 345 -91 0 0 -436z"/>
  <path class="fil1 str0" d="M4757 2442l0 0c50,0 91,41 91,91l0 345 -91 0"/>
  <path class="fil7" d="M5277 3825l0 -328c0,0 -496,-248 -520,-248 -24,0 -520,248 -520,248l0 328 -200 0 0 1575 1439 0 0 -1575 -200 0z"/>
  <path class="fil1 str0" d="M5277 3825l0 -328c0,0 -496,-248 -520,-248 -24,0 -520,248 -520,248l0 328 -200 0 0 1575 1439 0 0 -1575 -200 0z"/>
  <path class="fil8" d="M4853 3489c0,53 -43,96 -96,96 -53,0 -96,-43 -96,-96 0,-53 43,-96 96,-96 53,0 96,43 96,96z"/>
  <path class="fil1 str0" d="M4853 3489c0,53 -43,96 -96,96 -53,0 -96,-43 -96,-96 0,-53 43,-96 96,-96 53,0 96,43 96,96z"/>
  <polygon class="fil4" points="4661,3908 4853,3908 4853,3686 4661,3686 "/>
  <polygon class="fil1 str0" points="4661,3908 4853,3908 4853,3686 4661,3686 "/>
  <polygon class="fil4" points="4174,4607 4366,4607 4366,4385 4174,4385 "/>
  <polygon class="fil1 str0" points="4174,4607 4366,4607 4366,4385 4174,4385 "/>
  <polygon class="fil4" points="5149,4607 5341,4607 5341,4385 5149,4385 "/>
  <polygon class="fil1 str0" points="5149,4607 5341,4607 5341,4385 5149,4385 "/>
  <polygon class="fil7" points="3942,4208 5573,4208 "/>
  <line class="fil1 str0" x1="3942" y1="4208" x2="5573" y2= "4208" />
  <polygon class="fil7" points="3942,4760 5573,4760 "/>
  <line class="fil1 str0" x1="3942" y1="4760" x2="5573" y2= "4760" />
  <path class="fil7" d="M4509 4976l0 -711c0,-137 111,-248 248,-248l0 0c137,0 248,111 248,248l0 711 -496 0z"/>
  <path class="fil1 str0" d="M4509 4976l0 -711c0,-137 111,-248 248,-248l0 0c137,0 248,111 248,248l0 711"/>
  <polygon class="fil8" points="4669,5295 4861,5295 4861,4865 4669,4865 "/>
  <polygon class="fil1 str0" points="4669,5295 4861,5295 4861,4865 4669,4865 "/>
  <polygon class="fil8" points="5149,5295 5341,5295 5341,4865 5149,4865 "/>
  <polygon class="fil1 str0" points="5149,5295 5341,5295 5341,4865 5149,4865 "/>
  <polygon class="fil8" points="4174,5301 4366,5301 4366,4870 4174,4870 "/>
  <polygon class="fil1 str0" points="4174,5301 4366,5301 4366,4870 4174,4870 "/>
  <path class="fil8" d="M4362 4017c0,49 -39,88 -88,88 -49,0 -88,-39 -88,-88 0,-49 39,-88 88,-88 49,0 88,39 88,88z"/>
  <path class="fil1 str0" d="M4362 4017c0,49 -39,88 -88,88 -49,0 -88,-39 -88,-88 0,-49 39,-88 88,-88 49,0 88,39 88,88z"/>
  <path class="fil8" d="M5329 4017c0,49 -39,88 -88,88 -49,0 -88,-39 -88,-88 0,-49 39,-88 88,-88 49,0 88,39 88,88z"/>
  <path class="fil1 str0" d="M5329 4017c0,49 -39,88 -88,88 -49,0 -88,-39 -88,-88 0,-49 39,-88 88,-88 49,0 88,39 88,88z"/>
  <polygon class="fil7" points="4645,2338 4869,2338 4869,1726 4645,1726 "/>
  <polygon class="fil1 str0" points="4645,2338 4869,2338 4869,1726 4645,1726 "/>
  <line class="fil1 str0" x1="12642" y1="1347" x2="12642" y2= "1984" />
  <path class="fil8" d="M12949 1949c0,-166 -137,-300 -307,-300 -169,0 -307,134 -307,300l135 0 0 3452 344 0 0 -3452 135 0z"/>
  <path class="fil1 str0" d="M12949 1949c0,-166 -137,-300 -307,-300 -169,0 -307,134 -307,300l135 0 0 3452 344 0 0 -3452 135 0z"/>
  <path class="fil3" d="M12547 1867c0,0 -271,-46 -536,174l0 3360 536 0 0 -3534z"/>
  <path class="fil1 str0" d="M12547 1867c0,0 -271,-46 -536,174l0 3360 536 0 0 -3534z"/>
  <path class="fil8" d="M12393 2091c0,0 -294,-10 -536,291l0 3017 536 0 0 -3309z"/>
  <path class="fil1 str0" d="M12393 2091c0,0 -294,-10 -536,291l0 3017 536 0 0 -3309z"/>
  <path class="fil3" d="M12248 2354c0,0 -295,103 -538,381l0 2664 538 0 0 -3046z"/>
  <path class="fil1 str0" d="M12248 2354c0,0 -295,103 -538,381l0 2664 538 0 0 -3046z"/>
  <path class="fil2" d="M12737 1867c0,0 271,-46 536,174l0 3360 -536 0 0 -3534z"/>
  <path class="fil1 str0" d="M12737 1867c0,0 271,-46 536,174l0 3360 -536 0 0 -3534z"/>
  <path class="fil8" d="M12890 2091c0,0 294,-10 536,291l0 3017 -536 0 0 -3309z"/>
  <path class="fil1 str0" d="M12890 2091c0,0 294,-10 536,291l0 3017 -536 0 0 -3309z"/>
  <path class="fil2" d="M13036 2354c0,0 295,103 538,381l0 2664 -538 0 0 -3046z"/>
  <path class="fil1 str0" d="M13036 2354c0,0 295,103 538,381l0 2664 -538 0 0 -3046z"/>
  <line class="fil1 str0" x1="11866" y1="3139" x2="11866" y2= "4822" />
  <line class="fil1 str0" x1="13418" y1="3139" x2="13418" y2= "4822" />
  <polygon class="fil2" points="7717,5242 7984,5242 7984,5128 7717,5128 "/>
  <polygon class="fil1 str0" points="7717,5242 7984,5242 7984,5128 7717,5128 "/>
  <polygon class="fil2" points="7538,5400 8163,5400 8163,5242 7538,5242 "/>
  <polygon class="fil1 str0" points="7538,5400 8163,5400 8163,5242 7538,5242 "/>
  <path class="fil9" d="M5561 6303l0 196 104 0c44,0 76,-8 97,-25 21,-17 31,-43 31,-77 0,-63 -45,-94 -134,-94l-99 0zm0 -127l93 0c43,0 75,-7 94,-20 19,-13 29,-36 29,-66 0,-29 -11,-50 -32,-62 -21,-13 -55,-19 -100,-19l-84 0 0 167zm-160 -298l234 0c107,0 184,15 233,46 48,30 72,79 72,145 0,45 -11,82 -32,111 -21,29 -49,46 -84,52l0 5c48,11 82,31 103,60 21,29 32,68 32,116 0,69 -25,122 -74,161 -50,38 -117,58 -202,58l-282 0 0 -753z"/>
  <path class="fil9" d="M6244 6254c0,84 16,148 48,190 32,43 80,64 143,64 127,0 191,-85 191,-254 0,-170 -63,-255 -190,-255 -64,0 -111,21 -144,64 -32,43 -48,106 -48,190zm550 0c0,125 -31,221 -93,287 -62,67 -150,100 -266,100 -115,0 -204,-33 -266,-100 -62,-67 -93,-163 -93,-289 0,-125 31,-221 93,-287 62,-66 151,-99 267,-99 116,0 204,33 266,100 61,67 92,162 92,287z"/>
  <path class="fil9" d="M7394 6422c0,68 -24,122 -73,161 -49,39 -117,59 -204,59 -80,0 -151,-15 -213,-45l0 -148c51,23 94,39 129,48 35,9 67,14 97,14 35,0 62,-7 81,-20 19,-13 28,-33 28,-60 0,-15 -4,-28 -12,-39 -8,-12 -20,-23 -36,-33 -16,-11 -49,-28 -98,-51 -46,-22 -81,-42 -104,-62 -23,-20 -41,-43 -55,-70 -14,-26 -21,-57 -21,-93 0,-67 23,-119 68,-157 45,-38 108,-57 187,-57 39,0 77,5 112,14 36,9 73,22 112,39l-52 124c-40,-16 -73,-28 -100,-35 -26,-7 -52,-10 -78,-10 -30,0 -53,7 -70,21 -16,14 -24,32 -24,55 0,14 3,26 10,37 7,10 17,21 31,30 14,10 48,27 101,53 70,34 119,67 145,101 26,34 39,75 39,124z"/>
  <polygon class="fil9" points="7821,6631 7662,6631 7662,6011 7457,6011 7457,5878 8026,5878 8026,6011 7821,6011 "/>
  <path class="fil9" d="M8276 6254c0,84 16,148 48,190 32,43 80,64 143,64 127,0 191,-85 191,-254 0,-170 -63,-255 -190,-255 -64,0 -111,21 -144,64 -32,43 -48,106 -48,190zm550 0c0,125 -31,221 -93,287 -62,67 -150,100 -266,100 -115,0 -204,-33 -266,-100 -62,-67 -93,-163 -93,-289 0,-125 31,-221 93,-287 62,-66 151,-99 267,-99 116,0 204,33 266,100 61,67 92,162 92,287z"/>
  <path class="fil9" d="M9650 6631l-203 0 -328 -570 -5 0c7,101 10,172 10,215l0 354 -143 0 0 -753 201 0 327 564 4 0c-5,-98 -8,-167 -8,-208l0 -356 144 0 0 753z"/>
 </g>
</svg>
